<svg width="40" height="40" viewBox="0 0 40 40" fill="none" xmlns="http://www.w3.org/2000/svg">
<path d="M28.4323 23.0083C28.3715 20.623 27.8698 18.256 26.5989 16.2398C26.1794 15.5078 25.7537 14.9313 25.5834 14.1535C25.3463 12.8297 26.0273 11.5242 26.6172 10.356C25.4466 11.6645 24.8963 12.6589 24.6957 13.5404C23.7288 16.1727 24.3673 16.8926 25.325 18.2072C25.5105 18.4634 25.5835 18.6861 25.5926 18.8783C25.5895 19.1101 25.5044 19.3389 25.3433 19.5188C25.3372 19.528 25.3281 19.5341 25.322 19.5432C25.2825 19.5829 25.2399 19.6225 25.1912 19.6561L25.1791 19.6652C24.8264 19.9123 24.3703 19.8909 24.042 19.65V19.6591C21.3604 17.1305 25.0088 12.2959 22.5765 7.54673V7.56503C21.5945 5.96672 20.0561 4.59107 17.8913 3.45944C18.2227 3.73701 18.5511 4.03288 18.8643 4.34095C20.4635 6.00027 23.1208 9.84049 19.3264 14.4494C18.4204 12.1678 20.4756 10.3529 20.4756 10.3529C14.7567 13.577 10.1263 18.7685 11.9839 25.0824C12.2028 25.9975 12.5738 26.8546 13.0633 27.6232C13.0937 27.6781 13.121 27.733 13.1514 27.7879L13.1636 27.7788C13.3582 28.0716 13.574 28.3492 13.8021 28.6115C13.8021 28.6115 13.8233 28.6328 13.8325 28.642C13.951 28.7762 14.0727 28.9074 14.2004 29.0355C14.9969 29.9048 15.4682 30.5728 15.4682 31.2011V31.6343C15.4682 32.2504 15.9698 32.7567 16.587 32.7567H17.0309C17.6451 32.7567 18.1498 32.2535 18.1498 31.6343V31.5824H18.7974V31.6312C18.7974 32.2504 19.3021 32.7537 19.9162 32.7537H20.3571C20.9743 32.7537 21.4759 32.2474 21.4759 31.6312V31.5824H22.0414V31.6373C22.0414 32.2535 22.5431 32.7567 23.1572 32.7567H23.6072C24.2214 32.7567 24.723 32.2535 24.723 31.6373V31.1493C24.7474 30.5484 25.1943 29.9078 25.9422 29.0873C27.4837 27.5683 28.4414 25.4545 28.4414 23.1181C28.4414 23.0815 28.4383 23.0449 28.4383 23.0083H28.4414H28.4323ZM22.9687 23.9233C24.1119 23.9233 25.0392 24.8536 25.0392 26.0005C25.0392 27.1474 24.1119 28.0777 22.9687 28.0777C21.8256 28.0777 20.8983 27.1474 20.8983 26.0005C20.8983 24.8536 21.8256 23.9233 22.9687 23.9233ZM17.3623 23.237C18.8825 23.237 20.1169 24.4754 20.1169 26.0005C20.1169 27.5256 18.8825 28.764 17.3623 28.764C15.8421 28.764 14.6078 27.5256 14.6078 26.0005C14.6078 24.4754 15.8421 23.237 17.3623 23.237Z" fill="white"/>
<path d="M16.6995 17.1305C19.0437 16.6089 20.3875 21.1049 20.3875 21.1049C20.3875 21.1049 20.9652 20.0496 20.9013 18.1066C20.9013 18.1066 22.9323 22.3189 25.8814 21.0592C28.7728 19.8269 28.4171 24.7377 27.5871 26.7692C28.1252 25.665 28.4353 24.4266 28.4353 23.115C28.4353 23.0784 28.4323 23.0418 28.4323 23.0052H28.4353C28.3745 20.6199 27.8729 18.253 26.602 16.2368C26.1824 15.5047 25.7568 14.9282 25.5865 14.1504C25.3494 12.8266 26.0304 11.5212 26.6202 10.3529C25.4497 11.6615 24.8994 12.6558 24.6987 13.5373C23.7319 16.1697 24.3704 16.8895 25.3281 18.2042C25.5135 18.4604 25.5865 18.6831 25.5956 18.8752C25.5926 19.107 25.5075 19.3358 25.3463 19.5158C25.3402 19.5249 25.3311 19.531 25.325 19.5402C25.2855 19.5798 25.2429 19.6195 25.1943 19.653L25.1821 19.6622C24.8295 19.9092 24.3734 19.8879 24.045 19.6469V19.6561C21.3634 17.1274 25.0119 12.2929 22.5796 7.54368V7.56198C21.5915 5.96672 20.0531 4.59107 17.8883 3.45944C18.2197 3.73701 18.5481 4.03288 18.8612 4.34095C20.4605 6.00027 23.1177 9.84049 19.3234 14.4494C18.4173 12.1678 20.4726 10.3529 20.4726 10.3529C14.7567 13.577 10.1263 18.7654 11.9839 25.0824C11.5674 20.0679 13.6409 17.8137 16.6995 17.1305Z" fill="#2CE5A7"/>
</svg>
